<svg width="41" height="40" viewBox="0 0 41 40" fill="none" xmlns="http://www.w3.org/2000/svg">
<path d="M4 32.2917V21.5H7.08333V32.2917C7.08333 33.007 7.24367 33.6792 7.5335 34.2866L18.7938 23.0263C19.7768 22.0434 21.1099 21.4913 22.5 21.4913C23.8901 21.4913 25.2232 22.0434 26.2062 23.0263L37.4665 34.2866C37.7645 33.6639 37.9184 32.982 37.9167 32.2917V10.7083C37.9167 9.48171 37.4294 8.30532 36.562 7.43796C35.6947 6.57061 34.5183 6.08333 33.2917 6.08333H25.5833V3H33.2917C35.336 3 37.2967 3.81213 38.7423 5.25772C40.1879 6.70331 41 8.66396 41 10.7083V32.2917C41 34.336 40.1879 36.2967 38.7423 37.7423C37.2967 39.1879 35.336 40 33.2917 40H11.7083C9.66396 40 7.70331 39.1879 6.25772 37.7423C4.81213 36.2967 4 34.336 4 32.2917ZM35.2866 36.4665L24.0263 25.2062C23.8258 25.0057 23.5879 24.8467 23.326 24.7382C23.0641 24.6298 22.7835 24.5739 22.5 24.5739C22.2165 24.5739 21.9359 24.6298 21.674 24.7382C21.4121 24.8467 21.1742 25.0057 20.9738 25.2062L9.71342 36.4665C10.3178 36.7563 10.993 36.9167 11.7083 36.9167H33.2917C34.007 36.9167 34.6792 36.7533 35.2866 36.4665ZM33.2917 13.7978C33.2917 14.6172 32.9662 15.403 32.3868 15.9824C31.8074 16.5618 31.0216 16.8873 30.2022 16.8873C29.3828 16.8873 28.597 16.5618 28.0176 15.9824C27.4382 15.403 27.1127 14.6172 27.1127 13.7978C27.1127 12.9784 27.4382 12.1926 28.0176 11.6132C28.597 11.0338 29.3828 10.7083 30.2022 10.7083C31.0216 10.7083 31.8074 11.0338 32.3868 11.6132C32.9662 12.1926 33.2917 12.9784 33.2917 13.7978Z" fill="#555555"/>
<path fill-rule="evenodd" clip-rule="evenodd" d="M5 0C2.23858 0 0 2.23858 0 5V12C0 14.7614 2.23858 17 5 17H17C19.7614 17 22 14.7614 22 12V5C22 2.23858 19.7614 0 17 0H5ZM5 5.8V4H12.5263V5.8H9.63158V13H7.89474V5.8H5ZM10.7895 7H16V8.8H14.2632V13H12.5263V8.8H10.7895V7Z" fill="#555555"/>
</svg>
