<svg width="39" height="42" viewBox="0 0 39 42" fill="none" xmlns="http://www.w3.org/2000/svg">
<path d="M37 27.3333V6.22222C37 5.10242 36.5903 4.02848 35.861 3.23666C35.1317 2.44484 34.1425 2 33.1111 2H5.88889C4.85749 2 3.86834 2.44484 3.13903 3.23666C2.40972 4.02848 2 5.10242 2 6.22222V35.7778C2 36.8976 2.40972 37.9715 3.13903 38.7633C3.86834 39.5552 4.85749 40 5.88889 40H25.3333M37 27.3333V27.6964C36.9998 28.8162 36.5899 29.8899 35.8606 30.6816L28.4172 38.7629C27.6881 39.5548 26.6991 39.9998 25.6678 40H25.3333M37 27.3333L25.3333 40M37 27.3333H29.2222C28.1908 27.3333 27.2017 27.7782 26.4724 28.57C25.7431 29.3618 25.3333 30.4358 25.3333 31.5556V40M37 27.3333L31.1667 33.6667L25.3333 40" stroke="#555555" stroke-width="3" stroke-linecap="round" stroke-linejoin="round"/>
<line x1="11" y1="11" x2="29" y2="11" stroke="#555555" stroke-width="4" stroke-linecap="round"/>
<line x1="11" y1="21" x2="29" y2="21" stroke="#555555" stroke-width="4" stroke-linecap="round"/>
</svg>
