<svg width="60" height="60" viewBox="0 0 60 60" fill="none" xmlns="http://www.w3.org/2000/svg">
<circle cx="30" cy="30" r="30" fill="#FD4976"/>
<path d="M17.5462 40L15.6097 28.1976C15.5476 27.8193 15.9167 27.5148 16.2763 27.6476L24.4114 30.6524C24.6417 30.7375 24.8996 30.6428 25.0202 30.429L29.5645 22.3721C29.7558 22.033 30.2442 22.033 30.4355 22.3721L34.9799 30.429C35.1004 30.6428 35.3584 30.7375 35.5886 30.6524L43.7237 27.6476C44.0833 27.5148 44.4524 27.8193 44.3903 28.1976L42.4538 40" stroke="white" stroke-width="2" stroke-linecap="round"/>
<ellipse cx="12.1176" cy="25.05" rx="1.11765" ry="1.15" fill="white"/>
<ellipse cx="30" cy="18.15" rx="1.11765" ry="1.15" fill="white"/>
<ellipse cx="47.8824" cy="25.05" rx="1.11765" ry="1.15" fill="white"/>
</svg>
