<svg width="16" height="16" viewBox="0 0 16 16" fill="none" xmlns="http://www.w3.org/2000/svg">
<path fill-rule="evenodd" clip-rule="evenodd" d="M1.99981 2C1.99981 1.46957 2.21053 0.960859 2.5856 0.585786C2.96067 0.210714 3.46938 0 3.99981 0H11.9998C12.5302 0 13.0389 0.210714 13.414 0.585786C13.7891 0.960859 13.9998 1.46957 13.9998 2V3.133L14.9408 3.635C15.2607 3.80558 15.5283 4.05992 15.7148 4.37081C15.9013 4.6817 15.9998 5.03744 15.9998 5.4V14C15.9998 14.5304 15.7891 15.0391 15.414 15.4142C15.0389 15.7893 14.5302 16 13.9998 16H1.99981C1.46938 16 0.960676 15.7893 0.585603 15.4142C0.21053 15.0391 -0.000183095 14.5304 -0.000183095 14V5.4C-0.000219352 5.03744 0.0982976 4.6817 0.284831 4.37081C0.471364 4.05992 0.738897 3.80558 1.05882 3.635L1.99981 3.133V2ZM1.99981 4.267L1.52981 4.517C1.36969 4.60226 1.23577 4.72948 1.14241 4.88503C1.04904 5.04057 0.999755 5.21859 0.999816 5.4V6.217L1.99981 6.817V4.267ZM2.99981 7.417L6.74981 9.667L7.99981 8.917L9.24981 9.667L12.9998 7.417V2C12.9998 1.73478 12.8945 1.48043 12.7069 1.29289C12.5194 1.10536 12.265 1 11.9998 1H3.99981C3.7346 1 3.48024 1.10536 3.2927 1.29289C3.10517 1.48043 2.99981 1.73478 2.99981 2V7.417ZM13.9998 6.817L14.9998 6.217V5.4C14.9997 5.21876 14.9503 5.04095 14.857 4.8856C14.7636 4.73025 14.6298 4.60318 14.4698 4.518L13.9998 4.267V6.817ZM14.9998 7.383L10.2218 10.25L14.9998 13.117V7.383ZM14.9648 14.263L7.99981 10.082L1.03482 14.262C1.09234 14.4739 1.218 14.661 1.3924 14.7943C1.56681 14.9277 1.78026 15 1.99981 15H13.9998C14.2194 15 14.4328 14.9277 14.6072 14.7943C14.7816 14.661 14.9073 14.4749 14.9648 14.263ZM0.999816 13.116L5.77781 10.249L0.999816 7.383V13.116Z" fill="#666666"/>
<path d="M7.99974 2.48196C9.66374 0.808957 13.8247 3.73596 7.99974 7.49996C2.17474 3.73596 6.33574 0.809957 7.99974 2.48196Z" fill="#FF9E9B"/>
</svg>
