<svg width="46" height="46" viewBox="0 0 46 46" fill="none" xmlns="http://www.w3.org/2000/svg">
<path d="M23.1588 16.9638L23.1581 16.9645L23 17.7574H22.85V17.7581V23.0142C22.85 23.3133 22.9636 23.6014 23.1678 23.8149C23.3722 24.0285 23.6509 24.1499 23.9429 24.1499H28.9703C29.1157 24.152 29.2597 24.1222 29.393 24.0625C29.5256 24.0031 29.6444 23.9155 29.7418 23.8058L44.8243 8.03867C44.9275 7.93561 45.0093 7.81217 45.0651 7.67596C45.1212 7.53918 45.15 7.39216 45.15 7.24374C45.15 7.09532 45.1212 6.9483 45.0651 6.81152C45.0093 6.6753 44.9275 6.55186 44.8243 6.44879L39.7989 1.19533C39.7986 1.19497 39.7983 1.19461 39.7979 1.19425C39.698 1.08604 39.5779 0.999545 39.4445 0.94026C39.3107 0.880768 39.1666 0.85 39.0207 0.85C38.8749 0.85 38.7307 0.880769 38.5969 0.94026C38.4636 0.999545 38.3435 1.08604 38.2435 1.19425L23.1588 16.9638ZM38.7424 11.1864L28.5145 21.8786H25.0358V18.2283L35.2572 7.54288L38.7424 11.1864ZM42.5139 7.24374L40.2857 9.57302L36.8005 5.92953L39.0286 3.60026L42.5139 7.24374Z" fill="#555555" stroke="#555555" stroke-width="0.3"/>
<path d="M39.25 42.1702V24.383C39.25 23.995 39.0959 23.623 38.8216 23.3486C38.5472 23.0743 38.1752 22.9202 37.7872 22.9202C37.3993 22.9202 37.0272 23.0743 36.7529 23.3486C36.4786 23.623 36.3245 23.995 36.3245 24.383V42.1702C36.3245 42.2111 36.3082 42.2504 36.2793 42.2793C36.2504 42.3082 36.2111 42.3245 36.1702 42.3245H20H3.82979C3.78887 42.3245 3.74964 42.3082 3.72071 42.2793C3.69178 42.2504 3.67553 42.2111 3.67553 42.1702V9.82979C3.67553 9.78888 3.69178 9.74964 3.72071 9.72071C3.74964 9.69178 3.78888 9.67553 3.82979 9.67553H21.617C22.005 9.67553 22.377 9.52142 22.6514 9.2471C22.9257 8.97278 23.0798 8.60071 23.0798 8.21277C23.0798 7.82482 22.9257 7.45276 22.6514 7.17843C22.377 6.90411 22.005 6.75 21.617 6.75H3.82979C3.01298 6.75 2.22962 7.07448 1.65205 7.65205C1.07448 8.22962 0.75 9.01298 0.75 9.82979V42.1702C0.75 42.987 1.07448 43.7704 1.65205 44.3479C2.22962 44.9255 3.01298 45.25 3.82979 45.25H36.1702C36.987 45.25 37.7704 44.9255 38.3479 44.3479C38.9255 43.7704 39.25 42.987 39.25 42.1702Z" fill="#555555" stroke="#555555" stroke-width="0.5"/>
<path d="M15.7447 25H10.7778C10.0411 25 9.33453 25.3161 8.81359 25.8787C8.29266 26.4413 8 27.2044 8 28C8 28.7956 8.29266 29.5587 8.81359 30.1213C9.33453 30.6839 10.0411 31 10.7778 31H30.2222C30.9589 31 31.6655 31.3161 32.1864 31.8787C32.7073 32.4413 33 33.2044 33 34C33 34.7956 32.7073 35.5587 32.1864 36.1213C31.6655 36.6839 30.9589 37 30.2222 37H24.6667" stroke="#555555" stroke-width="3" stroke-linecap="round" stroke-linejoin="round"/>
</svg>
