<svg width="300" height="300" viewBox="0 0 300 300" fill="none" xmlns="http://www.w3.org/2000/svg">
<rect width="300" height="300" fill="#EBEBEB"/>
<path d="M13 14L286 285" stroke="#C4C4C4"/>
<path d="M286 14L14 287" stroke="#C4C4C4"/>
<rect x="89" y="87" width="122" height="122" fill="#EBEBEB"/>
<path d="M132.205 109.226L139.308 98H160.692L167.795 109.226H195.41C196.013 109.226 196.61 109.327 197.167 109.525C197.724 109.722 198.229 110.011 198.656 110.375C199.082 110.74 199.42 111.172 199.651 111.648C199.881 112.124 200 112.635 200 113.15V164.054C200 165.097 199.517 166.097 198.657 166.837C197.797 167.576 196.63 167.994 195.41 168H104.59C103.37 167.994 102.203 167.576 101.343 166.837C100.483 166.097 100 165.097 100 164.054V113.15C100 112.635 100.119 112.124 100.349 111.648C100.58 111.172 100.918 110.74 101.344 110.375C101.771 110.011 102.276 109.722 102.833 109.525C103.39 109.327 103.987 109.226 104.59 109.226H132.205Z" stroke="#C3C3C3" stroke-width="5" stroke-linecap="round" stroke-linejoin="round"/>
<circle cx="151" cy="138" r="18.5" stroke="#C4C4C4" stroke-width="3"/>
<circle cx="186" cy="123" r="4" stroke="#C4C4C4" stroke-width="2"/>
<path d="M124.631 183.336V194H122.434L118.149 186.852V194H115.952V183.336H118.149L122.441 190.492V183.336H124.631ZM135.303 188.419V188.924C135.303 189.735 135.193 190.462 134.973 191.107C134.753 191.751 134.443 192.301 134.043 192.755C133.643 193.204 133.164 193.548 132.607 193.788C132.056 194.027 131.443 194.146 130.769 194.146C130.1 194.146 129.487 194.027 128.931 193.788C128.379 193.548 127.9 193.204 127.495 192.755C127.09 192.301 126.775 191.751 126.55 191.107C126.331 190.462 126.221 189.735 126.221 188.924V188.419C126.221 187.604 126.331 186.876 126.55 186.236C126.77 185.592 127.08 185.042 127.48 184.588C127.886 184.134 128.364 183.788 128.916 183.548C129.473 183.309 130.085 183.189 130.754 183.189C131.428 183.189 132.041 183.309 132.593 183.548C133.149 183.788 133.628 184.134 134.028 184.588C134.434 185.042 134.746 185.592 134.966 186.236C135.19 186.876 135.303 187.604 135.303 188.419ZM133.083 188.924V188.404C133.083 187.838 133.032 187.34 132.93 186.91C132.827 186.48 132.676 186.119 132.476 185.826C132.275 185.533 132.031 185.313 131.743 185.167C131.455 185.016 131.125 184.94 130.754 184.94C130.383 184.94 130.054 185.016 129.766 185.167C129.482 185.313 129.241 185.533 129.041 185.826C128.845 186.119 128.696 186.48 128.594 186.91C128.491 187.34 128.44 187.838 128.44 188.404V188.924C128.44 189.486 128.491 189.984 128.594 190.418C128.696 190.848 128.848 191.212 129.048 191.51C129.248 191.803 129.492 192.025 129.78 192.176C130.068 192.328 130.398 192.403 130.769 192.403C131.14 192.403 131.47 192.328 131.758 192.176C132.046 192.025 132.288 191.803 132.483 191.51C132.678 191.212 132.827 190.848 132.93 190.418C133.032 189.984 133.083 189.486 133.083 188.924ZM142.957 183.336V194H140.767V183.336H142.957ZM146.018 183.336H147.878L150.618 191.166L153.357 183.336H155.217L151.365 194H149.871L146.018 183.336ZM145.015 183.336H146.868L147.205 190.968V194H145.015V183.336ZM154.368 183.336H156.228V194H154.031V190.968L154.368 183.336ZM162.622 185.16L159.722 194H157.385L161.348 183.336H162.834L162.622 185.16ZM165.032 194L162.124 185.16L161.89 183.336H163.391L167.375 194H165.032ZM164.9 190.03V191.751H159.268V190.03H164.9ZM176.685 188.426V192.652C176.519 192.853 176.262 193.07 175.916 193.304C175.569 193.534 175.122 193.731 174.575 193.897C174.028 194.063 173.367 194.146 172.59 194.146C171.902 194.146 171.274 194.034 170.708 193.81C170.142 193.58 169.653 193.246 169.243 192.806C168.838 192.367 168.525 191.83 168.306 191.195C168.086 190.555 167.976 189.825 167.976 189.005V188.338C167.976 187.518 168.081 186.788 168.291 186.148C168.506 185.509 168.811 184.969 169.207 184.53C169.602 184.09 170.073 183.756 170.62 183.526C171.167 183.297 171.775 183.182 172.444 183.182C173.372 183.182 174.133 183.333 174.729 183.636C175.325 183.934 175.779 184.349 176.091 184.881C176.409 185.409 176.604 186.014 176.677 186.698H174.546C174.492 186.336 174.39 186.021 174.238 185.753C174.087 185.484 173.87 185.274 173.586 185.123C173.308 184.972 172.947 184.896 172.502 184.896C172.136 184.896 171.809 184.972 171.521 185.123C171.238 185.27 170.999 185.487 170.803 185.775C170.608 186.063 170.459 186.419 170.356 186.844C170.254 187.269 170.203 187.762 170.203 188.324V189.005C170.203 189.562 170.256 190.055 170.364 190.484C170.471 190.909 170.63 191.268 170.84 191.561C171.055 191.849 171.318 192.066 171.631 192.213C171.943 192.359 172.307 192.433 172.722 192.433C173.069 192.433 173.357 192.403 173.586 192.345C173.821 192.286 174.009 192.215 174.15 192.132C174.297 192.044 174.409 191.961 174.487 191.883V189.994H172.48V188.426H176.685ZM185.613 192.286V194H179.937V192.286H185.613ZM180.654 183.336V194H178.457V183.336H180.654ZM184.873 187.679V189.349H179.937V187.679H184.873ZM185.605 183.336V185.057H179.937V183.336H185.605Z" fill="#C4C4C4"/>
</svg>
