<svg width="80" height="80" viewBox="0 0 80 80" fill="none" xmlns="http://www.w3.org/2000/svg">
<circle cx="40" cy="40" r="39.5" fill="white" stroke="#DDDDDD"/>
<path d="M41.504 64.9508C56.2609 43.5578 59 41.3623 59 33.5C59 22.7304 50.2696 14 39.5 14C28.7304 14 20 22.7304 20 33.5C20 41.3623 22.7391 43.5578 37.496 64.9508C38.4644 66.3498 40.5357 66.3497 41.504 64.9508Z" fill="#EA002C"/>
<path d="M40.7559 44.9721V39.756C40.7559 38.3719 41.142 37.1668 42.1588 36.7901L46.4993 35.246C46.6123 34.973 46.81 34.4269 46.7912 33.6642C46.7347 31.0279 45.2941 29.1072 43.2887 28.4576L31.3877 24.7385L34.4947 23.6275C34.6642 23.571 34.8713 23.5333 35.0502 23.5333C35.248 23.5333 35.4739 23.571 35.634 23.6181L47.7704 27.4125C49.8794 28.1186 50.6703 30.6419 50.6703 32.0071C50.6703 33.1182 50.2937 34.3986 49.1168 34.8223C48.0717 35.2084 44.9269 36.3288 44.9269 36.3288C44.814 36.6018 44.6351 37.1103 44.6351 38.2307C44.6351 38.8709 44.6256 42.3075 44.6256 42.929C44.6256 44.4072 43.9101 45.7536 42.5449 45.7536C41.9611 45.763 41.2926 45.4805 40.7559 44.9721Z" fill="white"/>
<path d="M37.6489 33.1182C38.2703 34.0691 38.5904 35.2649 38.5904 36.2723V40.6505C38.5904 43.3621 39.8427 45.5653 41.9046 46.1961L38.7223 47.2977C38.082 47.5237 37.4606 47.2883 37.084 47.0529C35.5399 46.0549 34.7207 44.5202 34.7207 42.1569C34.7207 41.0459 34.7113 39.5206 34.7113 37.5622C34.7113 36.4418 34.2405 35.1425 33.5061 34.1727C32.9506 33.4477 32.3198 32.9958 31.5007 32.7039C29.9377 32.1484 28.6667 30.1147 28.6667 28.1186C28.6667 26.405 29.5423 25.3223 30.7004 25.2375C30.9546 25.2187 31.1617 25.2658 31.3689 25.3317C32.0562 25.5388 32.6117 25.7365 32.6117 25.7365C32.2257 27.7232 33.3837 30.7643 35.7188 31.5929C36.632 31.9036 37.1781 32.412 37.6489 33.1182Z" fill="white"/>
</svg>
