<svg width="60" height="60" viewBox="0 0 60 60" fill="none" xmlns="http://www.w3.org/2000/svg">
<circle cx="30" cy="30" r="30" fill="#5674B9"/>
<path d="M49 34.0737C49 36.0514 47.1198 37.4879 45.2117 36.9683L36.5246 34.6023C35.2189 34.2467 34.3129 33.061 34.3129 31.7078L34.3129 28.2922C34.3129 26.939 35.2189 25.7533 36.5246 25.3977L45.2117 23.0317C47.1198 22.5121 49 23.9486 49 25.9263L49 34.0737Z" stroke="white" stroke-width="2"/>
<path d="M11 34.0737C11 36.0514 12.8802 37.4879 14.7883 36.9683L23.4754 34.6023C24.7811 34.2467 25.6871 33.061 25.6871 31.7078L25.6871 28.2922C25.6871 26.939 24.7811 25.7533 23.4754 25.3977L14.7883 23.0317C12.8802 22.5121 11 23.9486 11 25.9263L11 34.0737Z" stroke="white" stroke-width="2"/>
<rect x="25.6871" y="26" width="8.39264" height="8" rx="3" stroke="white" stroke-width="2"/>
</svg>
