<?xml version="1.0" encoding="utf-8"?>
<!-- Generator: Adobe Illustrator 24.1.2, SVG Export Plug-In . SVG Version: 6.00 Build 0)  -->
<svg version="1.1" id="Layer_1" xmlns="http://www.w3.org/2000/svg" xmlns:xlink="http://www.w3.org/1999/xlink" x="0px" y="0px"
	 viewBox="0 0 1920 969" style="enable-background:new 0 0 1920 969;" xml:space="preserve">
<style type="text/css">
	.st0{fill:#DCCDB9;}
</style>
<path class="st0" d="M1920,969V404.51c-45.59-43.29-131.73-81.75-193.66-54.79c-32.81,14.28-48.99,45.48-40.16,80.28
	c10.48,41.28,43.98,57.83,77.17,78.37c57.06,35.32,102.81,99.68,99.64,169.58c-1.76,38.82-34.99,69.91-75.64,76.52
	c-55.35,10.29-92.74-28.06-166.78-43.04c-39.78-9.43-97.95-20.88-158.2,79.04c-9.9,23.94-89.63,133.71-149.14,151.35
	c-64.04,20.45-131.28-91.62-180.26-110.47c-72-25.47-113.13,35.04-132.35,57.94c-65.76,95.88-119.63,153.43-139.71,172.53
	c-95.08,68.33-204.84-172.73-321.31-184.65c-90.82-9.3-108.73,10.29-284.14,91.83L1920,969L1920,969z"/>
</svg>
