<?xml version="1.0" encoding="utf-8"?>
<!-- Generator: Adobe Illustrator 24.1.2, SVG Export Plug-In . SVG Version: 6.00 Build 0)  -->
<svg version="1.1" id="Capa_1" xmlns="http://www.w3.org/2000/svg" xmlns:xlink="http://www.w3.org/1999/xlink" x="0px" y="0px"
	 viewBox="0 0 500 300" style="enable-background:new 0 0 500 300;" xml:space="preserve">
<style type="text/css">
	.st0{fill:#354652;}
	.st1{fill:none;stroke:#354652;stroke-width:18;stroke-linecap:round;stroke-linejoin:round;}
</style>
<path class="st0" d="M104.2,4.2v291.7h291.7V4.2H104.2z M378.8,278.8H121.3V21.3h257.5V278.8z"/>
<path class="st1" d="M195.9,95.8c0-15,12.1-27.1,27.1-27.1h27.1v54.2H223C208,122.9,195.9,110.8,195.9,95.8z"/>
<path class="st1" d="M250.1,68.8h27.1c15,0,27.1,12.1,27.1,27.1s-12.1,27.1-27.1,27.1h-27.1V68.8z"/>
<path class="st1" d="M250.1,150c0-15,12.1-27.1,27.1-27.1s27.1,12.1,27.1,27.1s-12.1,27.1-27.1,27.1S250.1,165,250.1,150z"/>
<path class="st1" d="M195.9,204.2c0-15,12.1-27.1,27.1-27.1h27.1v27.1c0,15-12.1,27.1-27.1,27.1S195.9,219.1,195.9,204.2z"/>
<path class="st1" d="M195.9,150c0-15,12.1-27.1,27.1-27.1h27.1v54.2H223C208,177.1,195.9,165,195.9,150z"/>
</svg>
