<?xml version="1.0" encoding="utf-8"?>
<!-- Generator: Adobe Illustrator 24.1.2, SVG Export Plug-In . SVG Version: 6.00 Build 0)  -->
<svg version="1.1" id="Capa_1" xmlns="http://www.w3.org/2000/svg" xmlns:xlink="http://www.w3.org/1999/xlink" x="0px" y="0px"
	 viewBox="0 0 500 300" style="enable-background:new 0 0 500 300;" xml:space="preserve">
<style type="text/css">
	.st0{fill:#354652;}
</style>
<path class="st0" d="M104.2,4.2v291.7h291.7V4.2H104.2z M378.8,278.8H121.3V21.3h257.5V278.8z"/>
<path class="st0" d="M199.8,61.2c-22.7,0-41.1,18.4-41.1,41.1v100.5c0,22.7,18.4,41.1,41.1,41.1h100.5c22.7,0,41.1-18.4,41.1-41.1
	V102.3c0-22.7-18.4-41.1-41.1-41.1H199.8z M208.8,88.9c6.9-0.2,12.4,2.3,12.4,10.5c0,18.6-17.2,45.9-17.2,45.9l8.6,5.7
	c0,0,24.4-25.1,20.1-53.8c7.8,3.3,25.1,21.8,25,35.3c-8.6,9.8-22.1,19.8-35.3,26.2l-1.1,0.9c0,0,2.3,4.3,4.2,10.6
	c1.7,5.8,3,14.1,1.6,21.6c-25.8-43-60.2-31.5-60.2-31.5c-1.4-1.4-4.3-6.4-4.3-13.6c0-7.3,2.9-12.2,7.2-12.2c4.3,0,18.6,3.6,20.1,5
	c1.4-7.2,7.2-29.4-5.7-42.3C188.7,94,199.9,89.2,208.8,88.9z M261.5,141.7c1.7,1.1,2.7,2.6,2.7,4.2c0,11.4,8.6,16.4,14.3,16.4
	c5.7,0,7.7-2.3,14.3-5c7.2-2.9-4.3,12.9-8.6,17.2c11.5,11.4,40.1-12.9,51.6-25.8c0,25.7-38.7,46.4-40.2,50.7
	c-0.8,2.4-3.9,12.9-8.7,19.1c-0.1-1.5-0.4-3.7-1.4-1.7c-1.4,2.9-4.3,0-5.7-4.3c-1.4-4.3,4.3-7.2,5.7,0c2.9-4.3,1.4-12.9-4.3-12.9
	c-7.2,0-4.3,10-4.3,10s-2.8-1.3-5.7-2.9c7.3,10.1,7.8,13.7,5.7,14.3l-2,0.5c-0.8-0.6-1.5-1.3-2.3-2.1c-12.9-14.3-25.8-19.1-37.3-22
	c1.3-4,1.7-9.2,1.6-13.9c1.7,5.5,15.5,11.2,18.5,4.6c5.7-12.9,15.8-11.5,20.1-11.5c-14.3-7.2-20.1,4.3-22.9,5.7
	c-2.9,1.4-7.2-2.9-10-5.7c-3.7-3.7-1.4-5.7,1.4-8.6c-7.9,0-11.6-1.7-13.1-3.7C242.2,158.5,253.3,150.2,261.5,141.7z M247,171.2
	c-0.7,0-1.4,0.3-2,0.8c-1.1,1.1-1.1,2.8,0,3.9l2.9,2.9c0.5,0.5,1.2,0.8,1.9,0.8s1.4-0.3,1.9-0.8c1.1-1.1,1.1-2.8,0-3.9l-2.9-2.9
	C248.4,171.5,247.7,171.2,247,171.2z"/>
</svg>
