<svg width="80" height="80" viewBox="0 0 80 80" fill="none" xmlns="http://www.w3.org/2000/svg">
<circle cx="40" cy="40" r="39.5" fill="white" stroke="#DDDDDD"/>
<path d="M38.496 64.9508C23.7391 43.5578 21 41.3623 21 33.5C21 22.7304 29.7304 14 40.5 14C51.2696 14 60 22.7304 60 33.5C60 41.3623 57.2609 43.5578 42.504 64.9508C41.5356 66.3498 39.4643 66.3497 38.496 64.9508Z" fill="#027BFE"/>
<path d="M50 43.6993C50 43.8976 49.8697 43.9936 49.6018 43.9936H43.2081C43.0271 43.9936 42.8895 43.9488 42.8098 43.8592C42.7302 43.7697 42.6505 43.6609 42.5709 43.5393L37.2127 34.9597V43.4626C37.2127 43.6033 37.1547 43.7313 37.0316 43.8401C36.9085 43.9488 36.771 44 36.6044 44H31.6372C31.4779 44 31.3258 43.9488 31.1955 43.8401C31.0652 43.7313 31 43.6097 31 43.4626V24.5118C31 24.3711 31.0652 24.2495 31.1955 24.1472C31.3258 24.0512 31.4779 24 31.6372 24H36.6044C36.7637 24 36.9085 24.0512 37.0316 24.1472C37.1547 24.2495 37.2127 24.3647 37.2127 24.5118V33.0403L43.0633 24.4287C43.1429 24.3007 43.237 24.1983 43.3384 24.1216C43.4398 24.0384 43.5701 24 43.7367 24H49.58C49.8552 24 50 24.1024 50 24.3007C50 24.4095 49.9566 24.5054 49.8769 24.595L43.237 33.8528L49.9059 43.4306C49.971 43.5202 50 43.6097 50 43.6993Z" fill="white"/>
</svg>
