<?xml version="1.0" encoding="utf-8"?>
<!-- Generator: Adobe Illustrator 24.1.2, SVG Export Plug-In . SVG Version: 6.00 Build 0)  -->
<svg version="1.1" id="Layer_1" xmlns="http://www.w3.org/2000/svg" xmlns:xlink="http://www.w3.org/1999/xlink" x="0px" y="0px"
	 viewBox="0 0 1500 500" style="enable-background:new 0 0 1500 500;" xml:space="preserve">
<style type="text/css">
	.st0{fill:url(#SVGID_1_);}
</style>
<linearGradient id="SVGID_1_" gradientUnits="userSpaceOnUse" x1="358.2814" y1="-1272.8477" x2="634.5249" y2="-185.5061" gradientTransform="matrix(0.8647 -0.5022 0.5022 0.8647 568.5066 1098.2592)">
	<stop  offset="0.3262" style="stop-color:#F4F1C1"/>
	<stop  offset="0.9614" style="stop-color:#F4B46A"/>
</linearGradient>
<path class="st0" d="M1430.35,366.93l-750.94-0.22c-17.03,0-30.83-13.81-30.82-30.84c0-17.03,13.81-30.83,30.84-30.82l37.44,0.01
	c30.41,0.01,55.06-24.63,55.07-55.04c0.01-30.41-24.63-55.06-55.04-55.07l-235.63-0.07c-17.03,0-30.83-13.81-30.82-30.84
	c0-17.03,13.81-30.83,30.84-30.82l468.28,0.14c30.41,0.01,55.06-24.63,55.07-55.04c0.01-30.41-24.63-55.06-55.04-55.07l-699.51-0.2
	c-30.41-0.01-55.06,24.63-55.07,55.04c-0.01,30.41,24.63,55.06,55.04,55.07l103.5,0.03c17.03,0,30.83,13.81,30.82,30.84
	c0,17.03-13.81,30.83-30.84,30.82l-290.64-0.08C32.5,194.76,7.84,219.4,7.84,249.8c-0.01,30.41,24.63,55.06,55.04,55.07l488.83,0.14
	c17.03,0,30.83,13.81,30.82,30.84c0,17.03-13.81,30.83-30.84,30.82l-156.35-0.05c-30.41-0.01-55.06,24.63-55.07,55.04
	s24.63,55.06,55.04,55.07l1035.02,0.3c30.41,0.01,55.06-24.63,55.07-55.04C1485.4,391.6,1460.75,366.94,1430.35,366.93z"/>
</svg>
