<?xml version="1.0" encoding="utf-8"?>
<!-- Generator: Adobe Illustrator 24.1.2, SVG Export Plug-In . SVG Version: 6.00 Build 0)  -->
<svg version="1.1" id="Layer_1" xmlns="http://www.w3.org/2000/svg" xmlns:xlink="http://www.w3.org/1999/xlink" x="0px" y="0px"
	 viewBox="0 0 1920 969" style="enable-background:new 0 0 1920 969;" xml:space="preserve">
<style type="text/css">
	.st0{fill:#DCCDB9;}
</style>
<path class="st0" d="M1920,969V404.51c-45.59-43.29-131.73-81.75-193.66-54.79c-32.81,14.28-48.99,45.48-40.16,80.28
	c10.48,41.28,43.98,57.83,77.17,78.37c57.06,35.32,102.81,99.68,99.64,169.58c-1.76,38.82-31.28,65.77-69.86,64.59
	c-79.77-2.45-130.25-10.73-209.84-16.65c-79.59-5.91-168.78,12.89-215.43,77.65c-14.08,19.55-23.68,42.51-40.77,59.49
	c-26.62,26.47-67.33,33.92-104.7,30.33c-37.37-3.59-130.65-35.34-167.05-44.54c-80.66-20.38-160-51-217.7-9.53
	c-95.08,68.33-195.58,114.46-312.05,102.54c-90.82-9.3-199.82-61.67-270.14,27.16L1920,969L1920,969z"/>
</svg>
