<?xml version="1.0" encoding="utf-8"?>
<!-- Generator: Adobe Illustrator 24.1.2, SVG Export Plug-In . SVG Version: 6.00 Build 0)  -->
<svg version="1.1" id="Layer_1" xmlns="http://www.w3.org/2000/svg" xmlns:xlink="http://www.w3.org/1999/xlink" x="0px" y="0px"
	 viewBox="0 0 1820 969" style="enable-background:new 0 0 1820 969;" xml:space="preserve">
<style type="text/css">
	.st0{fill:#9E8C8A;}
</style>
<path class="st0" d="M1820,969V396.97c-0.34-0.32-0.66-0.65-1-0.98c-45.5-43.41-131.92-82.12-193.99-55.1
	c-32.81,14.28-48.99,45.48-40.16,80.28c10.48,41.28,43.98,57.82,77.16,78.37c57.06,35.32,102.81,99.68,99.64,169.58
	c-1.76,38.82-31.28,65.77-69.87,64.59c-79.77-2.45-130.25-10.73-209.84-16.64c-79.59-5.91-168.78,12.89-215.43,77.65
	c-14.08,19.55-23.68,42.5-40.77,59.49c-26.62,26.47-67.33,33.92-104.7,30.33C1083.68,880.94,990.4,849.2,954,840
	c-80.66-20.38-160-51-217.7-9.53C641.22,898.8,540.72,944.93,424.25,933c-90.93-9.31-200.08-61.8-270.39,27.47
	c-2.11,2.67-4.03,5.53-5.75,8.52H1820z"/>
</svg>
