<?xml version="1.0" encoding="utf-8"?>
<!-- Generator: Adobe Illustrator 24.1.2, SVG Export Plug-In . SVG Version: 6.00 Build 0)  -->
<svg version="1.1" id="Capa_1" xmlns="http://www.w3.org/2000/svg" xmlns:xlink="http://www.w3.org/1999/xlink" x="0px" y="0px"
	 viewBox="0 0 500 300" style="enable-background:new 0 0 500 300;" xml:space="preserve">
<style type="text/css">
	.st0{fill:#354652;}
</style>
<path class="st0" d="M104.2,4.2v291.7h291.7V4.2H104.2z M378.8,278.8H121.3V21.3h257.5V278.8z"/>
<path class="st0" d="M257.9,117.9L257.9,117.9c-5.8,0.2-11.8,1.4-17.6,3.3c-3.9,1.3-7.9,2.8-11.7,4.6c-2.7,5.2-4.6,11-6,17
	c-0.9,4.1-1.6,8.3-2,12.5c3.1,4.9,7.2,9.5,11.7,13.7c3.1,2.9,6.4,5.5,9.9,7.9h0.1c5.7-0.2,11.7-1.4,17.5-3.3
	c3.9-1.3,7.9-2.8,11.7-4.6h0.1c2.6-5.2,4.5-11,5.9-17c0.9-4.1,1.6-8.3,2-12.5c-3.1-4.9-7.2-9.5-11.7-13.7
	C264.6,123.1,261.3,120.4,257.9,117.9z M174.8,148.1c8.3-9.1,17.7-16.8,27.7-23.7c3.8-2.6,7.7-5,11.8-7.3c4.6-2.6,9.3-5,14.2-7.1
	c2.2-1,4.4-1.9,6.7-2.8c2.1-0.7,4.2-1.5,6.4-2.1c-10.1-5.3-20.8-9.8-31.8-12.7c-5.4-1.4-10.9-2.5-16.4-2.8
	c-15,14.7-24.3,35.2-24.3,57.8c0,2.4,0.2,4.8,0.4,7.2C171.1,152.4,172.9,150.2,174.8,148.1z M211.8,83.5c12,2.6,23.5,6.7,34.6,11.8
	c4.1,2,8.2,4,12.2,6.4h0.1c4.6,2.5,9,5.3,13.3,8.5v0.1c1.9,1.3,3.9,2.8,5.8,4.3c1.7,1.4,3.4,2.8,5,4.5c0-0.1,0-0.1,0-0.1
	c-0.4-11.2-1.8-22.6-4.7-33.5c-1.6-5.4-3.3-10.7-5.8-15.6c0-0.1-0.1-0.2-0.1-0.2c-7.1-2-14.5-3.2-22.2-3.2
	c-17.8,0-34.2,5.8-47.6,15.6C205.6,82.3,208.7,82.9,211.8,83.5z M286.9,82.8c3.8,11.6,5.9,23.5,7,35.6c0.4,4.5,0.6,9.1,0.5,13.7
	c0,5.2-0.2,10.4-0.8,15.6c-0.2,2.4-0.6,4.7-1,7.2c-0.4,2.2-0.8,4.3-1.3,6.5c9.8-6,19-12.9,27.1-20.9c3.8-3.7,7.3-7.7,10.2-12
	c-5.9-24.4-22.8-44.5-45.2-54.7C284.8,76.7,285.9,79.7,286.9,82.8z M325.2,146.7c-8.3,9.1-17.7,16.8-27.7,23.7
	c-3.8,2.6-7.7,5-11.8,7.3h-0.1c-4.6,2.6-9.3,5-14.1,7.1c-2.2,1-4.4,1.9-6.7,2.8c-2.1,0.7-4.2,1.5-6.4,2.1
	c10.1,5.3,20.8,9.8,31.8,12.7c5.5,1.4,10.9,2.5,16.4,2.8c15-14.7,24.3-35.2,24.3-57.8c0-2.4-0.2-4.8-0.4-7.2
	C328.9,142.4,327.1,144.6,325.2,146.7z M213.1,212c-3.8-11.6-5.9-23.5-7-35.6c-0.4-4.5-0.6-9.1-0.5-13.7c0-5.2,0.2-10.4,0.8-15.6
	c0.2-2.4,0.6-4.7,1-7.2c0.4-2.2,0.8-4.3,1.3-6.5c-9.8,6-19,12.9-27.1,20.9c-3.8,3.7-7.3,7.7-10.2,12c5.9,24.4,22.8,44.5,45.2,54.7
	C215.2,218.1,214.1,215.1,213.1,212z M288.2,211.3c-12-2.6-23.5-6.7-34.6-11.8c-4.1-2-8.1-4-12.1-6.4h-0.1
	c-4.6-2.5-9.1-5.3-13.4-8.5c-1.9-1.4-3.9-2.8-5.8-4.4c-1.7-1.4-3.4-2.9-5-4.5c0,0.1,0,0.1,0,0.1c0.4,11.2,1.8,22.6,4.7,33.5
	c1.6,5.4,3.3,10.7,5.8,15.6c0,0.1,0.1,0.2,0.1,0.2c7.1,2,14.5,3.1,22.2,3.1c17.8,0,34.2-5.8,47.6-15.6
	C294.4,212.5,291.3,211.9,288.2,211.3z"/>
</svg>
