<?xml version="1.0" encoding="utf-8"?>
<!-- Generator: Adobe Illustrator 16.0.0, SVG Export Plug-In . SVG Version: 6.00 Build 0)  -->
<!DOCTYPE svg PUBLIC "-//W3C//DTD SVG 1.1//EN" "http://www.w3.org/Graphics/SVG/1.1/DTD/svg11.dtd">
<svg version="1.1" id="Capa_1" xmlns="http://www.w3.org/2000/svg" xmlns:xlink="http://www.w3.org/1999/xlink" x="0px" y="0px"
	 width="500px" height="300px" viewBox="0 0 500 300" enable-background="new 0 0 500 300" xml:space="preserve">
<path fill="#354652" d="M104.167,4.167v291.667h291.667V4.167H104.167z M378.75,278.75h-257.5V21.25h257.5V278.75z"/>
<path fill="#354652" d="M263.125,74.531c-0.059,0.023-0.129,0.059-0.188,0.094l-84,15.938c-1.43,0.27-2.461,1.535-2.438,3V205.5
	c-0.023,1.465,1.008,2.73,2.438,3l84,15.938c0.867,0.164,1.77-0.059,2.461-0.621c0.68-0.563,1.09-1.395,1.102-2.285v-15h51
	c3.281,0,6-2.719,6-6v-102c0-3.281-2.719-6-6-6h-51v-15c0.012-0.867-0.363-1.688-1.008-2.262S263.98,74.426,263.125,74.531z
	 M260.5,81.094v13.5c-0.176,0.586-0.176,1.195,0,1.781v106.594c-0.082,0.398-0.082,0.82,0,1.219v13.781l-78-14.906V96L260.5,81.094z
	 M266.5,98.531h51v102h-51v-15h30v-6h-30v-16.688c2.766,1.102,5.848,1.688,9,1.688c13.219,0,24-10.781,24-24v-3h-21v-21h-3
	c-3.176,0-6.211,0.574-9,1.688V98.531z M281.5,107.531v27h27v-3c0-13.219-10.781-24-24-24H281.5z M287.5,114.094
	c7.477,1.289,13.148,6.961,14.438,14.438H287.5V114.094z M200.969,121.5v56.156h12.656v-19.313h6c6.785,0,12.258-1.77,16.313-5.25
	s6.094-8.051,6.094-13.688c0-11.93-7.137-17.906-21.281-17.906H200.969z M272.5,123.281v20.25h20.438
	c-1.465,8.484-8.52,15-17.438,15c-3.141,0-6.059-0.844-8.625-2.25c-0.117-0.07-0.246-0.129-0.375-0.188v-31.125
	c0.094-0.059,0.188-0.117,0.281-0.188C268.48,123.832,270.52,123.633,272.5,123.281z M213.625,131.25h4.969
	c6.727,0,10.125,2.859,10.125,8.625c0,5.895-3.398,8.813-10.125,8.813h-4.969V131.25z"/>
</svg>
