<?xml version="1.0" encoding="utf-8"?>
<!-- Generator: Adobe Illustrator 24.1.2, SVG Export Plug-In . SVG Version: 6.00 Build 0)  -->
<svg version="1.1" id="Layer_1" xmlns="http://www.w3.org/2000/svg" xmlns:xlink="http://www.w3.org/1999/xlink" x="0px" y="0px"
	 viewBox="0 0 500 500" style="enable-background:new 0 0 500 500;" xml:space="preserve">
<style type="text/css">
	.st0{fill:#A3D1E5;}
</style>
<g>
	<rect class="st0" width="8" height="500"/>
</g>
<g>
	<rect x="16" class="st0" width="8" height="500"/>
</g>
<g>
	<rect x="32" class="st0" width="8" height="500"/>
</g>
<g>
	<rect x="48" class="st0" width="8" height="500"/>
</g>
<g>
	<rect x="64" class="st0" width="8" height="500"/>
</g>
<g>
	<rect x="80" class="st0" width="8" height="500"/>
</g>
<g>
	<rect x="96" class="st0" width="8" height="500"/>
</g>
<g>
	<rect x="112" class="st0" width="8" height="500"/>
</g>
<g>
	<rect x="128" class="st0" width="8" height="500"/>
</g>
<g>
	<rect x="144" class="st0" width="8" height="500"/>
</g>
<g>
	<rect x="160" class="st0" width="8" height="500"/>
</g>
<g>
	<rect x="176" class="st0" width="8" height="500"/>
</g>
<g>
	<rect x="192" class="st0" width="8" height="500"/>
</g>
<g>
	<rect x="208" class="st0" width="8" height="500"/>
</g>
<g>
	<rect x="224" class="st0" width="8" height="500"/>
</g>
<g>
	<rect x="240" class="st0" width="8" height="500"/>
</g>
<g>
	<rect x="256" class="st0" width="8" height="500"/>
</g>
<g>
	<rect x="272" class="st0" width="8" height="500"/>
</g>
<g>
	<rect x="288" class="st0" width="8" height="500"/>
</g>
<g>
	<rect x="304" class="st0" width="8" height="500"/>
</g>
<g>
	<rect x="320" class="st0" width="8" height="500"/>
</g>
<g>
	<rect x="336" class="st0" width="8" height="500"/>
</g>
<g>
	<rect x="352" class="st0" width="8" height="500"/>
</g>
<g>
	<rect x="368" class="st0" width="8" height="500"/>
</g>
<g>
	<rect x="384" class="st0" width="8" height="500"/>
</g>
<g>
	<rect x="400" class="st0" width="8" height="500"/>
</g>
<g>
	<rect x="416" class="st0" width="8" height="500"/>
</g>
<g>
	<rect x="432" class="st0" width="8" height="500"/>
</g>
<g>
	<rect x="448" class="st0" width="8" height="500"/>
</g>
<g>
	<rect x="464" class="st0" width="8" height="500"/>
</g>
<g>
	<rect x="480" class="st0" width="8" height="500"/>
</g>
<g>
	<rect x="496" class="st0" width="8" height="500"/>
</g>
</svg>
