<?xml version="1.0" encoding="utf-8"?>
<!-- Generator: Adobe Illustrator 16.0.0, SVG Export Plug-In . SVG Version: 6.00 Build 0)  -->
<!DOCTYPE svg PUBLIC "-//W3C//DTD SVG 1.1//EN" "http://www.w3.org/Graphics/SVG/1.1/DTD/svg11.dtd">
<svg version="1.1" id="Layer_1" xmlns="http://www.w3.org/2000/svg" xmlns:xlink="http://www.w3.org/1999/xlink" x="0px" y="0px"
	 width="500px" height="300px" viewBox="0 0 500 300" enable-background="new 0 0 500 300" xml:space="preserve">
<path fill="none" stroke="#C08768" stroke-width="5.6693" stroke-miterlimit="10" d="M206.465,17.077
	c76.6-18.724,159.663-9.74,230.488,24.93c17.804,8.715,79.386,53.364,47.205,78.507c-3.038,2.373-6.883,3.407-10.611,4.386
	c-26.213,6.879-63.296,10.097-86.219,25.379c-16.152,11.112-19.346,33.785-16.918,53.244c2.894,23.196,18.926,54.942-5.902,71.162
	c-29.087,19.004-87.454,21.881-119.787,12.964c-18.406-5.075-35.018-15.028-52.384-22.965
	c-24.544-11.217-49.255-13.314-75.764-9.561c-26.304,3.724-52.379,15.402-78.42,2.891c-25.487-12.247-36.515-45.564-28.14-72.571
	c8.376-27.008,32.6-47.073,59.409-56.063c12.256-4.108,25.163-6.231,37.114-11.158c26.191-10.796,26.909-31.216,36.652-54.064
	C154.945,36.591,178.525,23.906,206.465,17.077z"/>
</svg>
